<?xml version="1.0" encoding="utf-8"?>
<!-- Generator: Adobe Illustrator 22.1.0, SVG Export Plug-In . SVG Version: 6.00 Build 0)  -->
<svg version="1.1" id="레이어_1" xmlns="http://www.w3.org/2000/svg" xmlns:xlink="http://www.w3.org/1999/xlink" x="0px"
	 y="0px" viewBox="0 0 2189 431.5" style="enable-background:new 0 0 2189 431.5;" xml:space="preserve">
<style type="text/css">
	.st0{fill:#581C67;}
</style>
<g id="XMLID_1_">
	<g id="XMLID_539_">
		<g id="XMLID_2989_">
			<g id="XMLID_3047_">
				<g id="XMLID_2864_">
					<path id="XMLID_6_" class="st0" d="M38.8,346.4h15.9v38.5h0.4c2.1-3.2,4.3-6.2,6.4-9.1l23-29.4h19.8L74,382.1l32.2,48.1H87.4
						l-24.9-38.4l-7.8,8.9v29.4H38.8V346.4z"/>
				</g>
			</g>
			<g id="XMLID_3044_">
				<g id="XMLID_2860_">
					<path id="XMLID_7_" class="st0" d="M199.2,387.4c0,28.1-17.9,44.1-42.1,44.1c-24.8,0-40.4-18-40.4-42.6
						c0-25.7,17-43.8,41.7-43.8C184,345.1,199.2,363.6,199.2,387.4z M133.6,388.7c0,17,9,30.7,24.4,30.7c15.5,0,24.3-13.8,24.3-31.3
						c0-15.8-8.2-30.8-24.3-30.8C142,357.2,133.6,371.4,133.6,388.7z"/>
				</g>
			</g>
			<g id="XMLID_3041_">
				<g id="XMLID_2856_">
					<path id="XMLID_8_" class="st0" d="M219.5,347.5c6-1,15-1.7,24.3-1.7c12.7,0,21.3,2,27.1,6.7c4.8,3.8,7.6,9.7,7.6,16.8
						c0,10.8-7.7,18.1-15.9,21v0.4c6.3,2.2,10,8.1,12.3,16.1c2.7,10.4,5.1,20.1,6.9,23.4h-16.6c-1.3-2.5-3.4-9.3-5.9-19.7
						c-2.5-10.9-6.7-14.4-15.8-14.7h-8.1v34.4h-15.9V347.5z M235.4,384.6h9.5c10.8,0,17.6-5.5,17.6-13.8c0-9.2-6.8-13.4-17.2-13.4
						c-5.1,0-8.3,0.4-9.9,0.7V384.6z"/>
				</g>
			</g>
			<g id="XMLID_3039_">
				<g id="XMLID_2853_">
					<path id="XMLID_9_" class="st0" d="M349.4,393h-33.1v24.6h37v12.5h-53.1v-83.7h51.1V359h-35.1v21.6h33.1V393z"/>
				</g>
			</g>
			<g id="XMLID_3036_">
				<g id="XMLID_2849_">
					<path id="XMLID_10_" class="st0" d="M391.5,406.4l-7.6,23.7h-16.6l28.2-83.7H416l28.6,83.7h-17.2l-8-23.7H391.5z M416.7,394.9
						l-6.9-20.6c-1.7-5.1-3.1-10.8-4.4-15.6h-0.3c-1.3,4.8-2.6,10.7-4.2,15.6l-6.8,20.6H416.7z"/>
				</g>
			</g>
			<g id="XMLID_3034_">
				<g id="XMLID_2846_">
					<path id="XMLID_11_" class="st0" d="M559.9,427.7c-3.8,1.9-12.1,3.8-22.7,3.8c-27.9,0-44.9-16.8-44.9-42.2
						c0-27.6,20.1-44.2,47-44.2c10.6,0,18.1,2.1,21.4,3.7l-3.5,12.2c-4.2-1.7-9.9-3.2-17.2-3.2c-17.9,0-30.8,10.7-30.8,30.8
						c0,18.4,11.3,30.2,30.6,30.2c6.5,0,13.3-1.2,17.5-3.1L559.9,427.7z"/>
				</g>
			</g>
			<g id="XMLID_3031_">
				<g id="XMLID_2842_">
					<path id="XMLID_12_" class="st0" d="M580.1,347.5c6-1,15-1.7,24.3-1.7c12.6,0,21.3,2,27.1,6.7c4.8,3.8,7.6,9.7,7.6,16.8
						c0,10.8-7.7,18.1-15.9,21v0.4c6.3,2.2,10,8.1,12.3,16.1c2.7,10.4,5.1,20.1,6.9,23.4h-16.6c-1.3-2.5-3.4-9.3-5.9-19.7
						c-2.5-10.9-6.7-14.4-15.8-14.7H596v34.4h-15.9V347.5z M596,384.6h9.5c10.8,0,17.6-5.5,17.6-13.8c0-9.2-6.8-13.4-17.2-13.4
						c-5.1,0-8.3,0.4-9.9,0.7V384.6z"/>
				</g>
			</g>
			<g id="XMLID_3029_">
				<g id="XMLID_2839_">
					<path id="XMLID_13_" class="st0" d="M710,393h-33.1v24.6h37v12.5h-53.1v-83.7h51.1V359h-35.1v21.6H710V393z"/>
				</g>
			</g>
			<g id="XMLID_3026_">
				<g id="XMLID_2835_">
					<path id="XMLID_14_" class="st0" d="M752.1,406.4l-7.6,23.7h-16.6l28.2-83.7h20.5l28.6,83.7h-17.2l-8-23.7H752.1z M777.2,394.9
						l-6.9-20.6c-1.7-5.1-3.1-10.8-4.4-15.6h-0.3c-1.3,4.8-2.6,10.7-4.2,15.6l-6.8,20.6H777.2z"/>
				</g>
			</g>
			<g id="XMLID_3024_">
				<g id="XMLID_2832_">
					<path id="XMLID_15_" class="st0" d="M840.7,359.2h-25v-12.8h66.4v12.8h-25.3v70.9h-16V359.2z"/>
				</g>
			</g>
			<g id="XMLID_3022_">
				<g id="XMLID_2829_">
					<path id="XMLID_16_" class="st0" d="M914.9,346.4v83.7h-16v-83.7H914.9z"/>
				</g>
			</g>
			<g id="XMLID_3020_">
				<g id="XMLID_2826_">
					<path id="XMLID_17_" class="st0" d="M959.9,430.1l-28.4-83.7H949l12,38c3.4,10.6,6.3,20.4,8.6,30.6h0.3
						c2.3-9.9,5.5-20.1,9-30.3l12.8-38.3h17.1l-30.4,83.7H959.9z"/>
				</g>
			</g>
			<g id="XMLID_3018_">
				<g id="XMLID_2823_">
					<path id="XMLID_18_" class="st0" d="M1073.9,393h-33.1v24.6h37v12.5h-53.1v-83.7h51.1V359h-35.1v21.6h33.1V393z"/>
				</g>
			</g>
			<g id="XMLID_3016_">
				<g id="XMLID_2820_">
					<path id="XMLID_19_" class="st0" d="M1192.3,427.7c-3.8,1.9-12.1,3.8-22.7,3.8c-27.9,0-44.9-16.8-44.9-42.2
						c0-27.6,20.1-44.2,47-44.2c10.6,0,18.1,2.1,21.4,3.7l-3.5,12.2c-4.2-1.7-9.9-3.2-17.2-3.2c-17.9,0-30.8,10.7-30.8,30.8
						c0,18.4,11.3,30.2,30.6,30.2c6.5,0,13.3-1.2,17.5-3.1L1192.3,427.7z"/>
				</g>
			</g>
			<g id="XMLID_3013_">
				<g id="XMLID_2816_">
					<path id="XMLID_20_" class="st0" d="M1284.4,387.4c0,28.1-17.9,44.1-42.1,44.1c-24.8,0-40.4-18-40.4-42.6
						c0-25.7,17-43.8,41.7-43.8C1269.3,345.1,1284.4,363.6,1284.4,387.4z M1218.8,388.7c0,17,9,30.7,24.4,30.7
						c15.5,0,24.3-13.8,24.3-31.3c0-15.8-8.2-30.8-24.3-30.8C1227.3,357.2,1218.8,371.4,1218.8,388.7z"/>
				</g>
			</g>
			<g id="XMLID_3011_">
				<g id="XMLID_2813_">
					<path id="XMLID_21_" class="st0" d="M1298.6,430.1v-83.7h18.3l22.7,35.9c5.9,9.3,11,19,15,28.1h0.3c-1-11.2-1.4-22-1.4-34.8
						v-29.2h14.9v83.7h-16.6l-23-36.9c-5.6-9.1-11.5-19.4-15.8-28.8l-0.4,0.1c0.7,10.8,0.8,21.9,0.8,35.6v29.9H1298.6z"/>
				</g>
			</g>
			<g id="XMLID_3009_">
				<g id="XMLID_2810_">
					<path id="XMLID_22_" class="st0" d="M1404,359.2h-25v-12.8h66.4v12.8H1420v70.9h-16V359.2z"/>
				</g>
			</g>
			<g id="XMLID_3007_">
				<g id="XMLID_2807_">
					<path id="XMLID_23_" class="st0" d="M1505.2,393H1472v24.6h37v12.5H1456v-83.7h51.1V359H1472v21.6h33.1V393z"/>
				</g>
			</g>
			<g id="XMLID_3005_">
				<g id="XMLID_2804_">
					<path id="XMLID_24_" class="st0" d="M1523.5,430.1v-83.7h18.3l22.7,35.9c5.9,9.3,11,19,15,28.1h0.3c-1-11.2-1.4-22-1.4-34.8
						v-29.2h14.9v83.7h-16.6l-23-36.9c-5.6-9.1-11.5-19.4-15.8-28.8l-0.4,0.1c0.7,10.8,0.8,21.9,0.8,35.6v29.9H1523.5z"/>
				</g>
			</g>
			<g id="XMLID_3003_">
				<g id="XMLID_2801_">
					<path id="XMLID_25_" class="st0" d="M1628.9,359.2h-25v-12.8h66.4v12.8h-25.3v70.9h-16V359.2z"/>
				</g>
			</g>
			<g id="XMLID_3000_">
				<g id="XMLID_2797_">
					<path id="XMLID_26_" class="st0" d="M1720.7,406.4l-7.6,23.7h-16.6l28.2-83.7h20.5l28.6,83.7h-17.2l-8-23.7H1720.7z
						 M1745.9,394.9l-6.9-20.6c-1.7-5.1-3.1-10.8-4.4-15.6h-0.3c-1.3,4.8-2.6,10.7-4.2,15.6l-6.8,20.6H1745.9z"/>
				</g>
			</g>
			<g id="XMLID_2998_">
				<g id="XMLID_2794_">
					<path id="XMLID_27_" class="st0" d="M1856.9,426.3c-5.6,2-16.6,4.7-28.3,4.7c-14.9,0-26.1-3.6-34.4-11.2
						c-7.8-7.1-12.4-18.1-12.3-30.8c0-26.5,19.8-43.5,48.9-43.5c10.8,0,19.3,2.1,23.3,4l-3.5,12.3c-4.8-2-10.7-3.6-20-3.6
						c-18.8,0-32,10.6-32,30.1c0,19,12.3,30.3,30.5,30.3c5.7,0,10-0.7,12.1-1.7V396h-15.5v-12h31V426.3z"/>
				</g>
			</g>
			<g id="XMLID_2996_">
				<g id="XMLID_2791_">
					<path id="XMLID_28_" class="st0" d="M1922.8,393h-33.1v24.6h37v12.5h-53.1v-83.7h51.1V359h-35.1v21.6h33.1V393z"/>
				</g>
			</g>
			<g id="XMLID_2994_">
				<g id="XMLID_2788_">
					<path id="XMLID_29_" class="st0" d="M1941.2,430.1v-83.7h18.3l22.7,35.9c5.9,9.3,11,19,15,28.1h0.3c-1-11.2-1.4-22-1.4-34.8
						v-29.2h14.9v83.7h-16.6l-23-36.9c-5.6-9.1-11.5-19.4-15.8-28.8l-0.4,0.1c0.7,10.8,0.8,21.9,0.8,35.6v29.9H1941.2z"/>
				</g>
			</g>
			<g id="XMLID_2992_">
				<g id="XMLID_2785_">
					<path id="XMLID_30_" class="st0" d="M2092.8,427.7c-3.8,1.9-12.1,3.8-22.7,3.8c-27.9,0-44.9-16.8-44.9-42.2
						c0-27.6,20.1-44.2,47-44.2c10.6,0,18.1,2.1,21.4,3.7L2090,361c-4.2-1.7-9.9-3.2-17.2-3.2c-17.9,0-30.8,10.7-30.8,30.8
						c0,18.4,11.3,30.2,30.6,30.2c6.5,0,13.3-1.2,17.5-3.1L2092.8,427.7z"/>
				</g>
			</g>
			<g id="XMLID_2990_">
				<g id="XMLID_2782_">
					<path id="XMLID_31_" class="st0" d="M2126.8,430.1v-34.9l-27.8-48.8h18.3l10.6,21.5c3,6.2,5.2,10.9,7.6,16.6h0.3
						c2.2-5.3,4.7-10.6,7.7-16.6l10.6-21.5h18.1l-29.2,48.4v35.3H2126.8z"/>
				</g>
			</g>
		</g>
	</g>
	<g id="XMLID_494_">
		<g id="XMLID_1392_">
			<g id="XMLID_1393_">
				<path id="XMLID_5_" class="st0" d="M135.4,125.5c0-30.9-26.4-56.1-58.9-56.1c-32.5,0-58.9,25.2-58.9,56.1
					c0,30.9,26.4,56.1,58.9,56.1C108.9,181.6,135.4,156.4,135.4,125.5 M50.4,125.5c0-13.7,11.7-24.8,26-24.8c14.3,0,26,11.1,26,24.8
					c0,13.7-11.7,24.8-26,24.8C62.1,150.2,50.4,139.1,50.4,125.5"/>
			</g>
		</g>
		<g id="XMLID_1388_">
			<g id="XMLID_1389_">
				<path id="XMLID_32_" class="st0" d="M2044.7,113.6c32.5,0,58.9-23.9,58.9-53.3c0-29.4-26.4-53.3-58.9-53.3
					c-32.5,0-58.9,23.9-58.9,53.3C1985.8,89.6,2012.3,113.6,2044.7,113.6 M2044.7,37.6c13.8,0,25,10.2,25,22.6
					c0,12.5-11.2,22.6-25,22.6c-13.8,0-25-10.2-25-22.6C2019.7,47.8,2031,37.6,2044.7,37.6"/>
			</g>
		</g>
		<g id="XMLID_1384_">
			<g id="XMLID_1385_">
				<path id="XMLID_33_" class="st0" d="M1742,83.4c0,27.9,26.4,50.6,58.9,50.6s58.9-22.7,58.9-50.6c0-13.1-5.9-25.1-15.5-34.1h32
					c6,0,11.6-3.2,14.6-8.4l11.2-19.4v0h-84.3V0h-34.2v21.5h-84.1v27.9h57.8C1747.9,58.3,1742,70.3,1742,83.4 M1800.9,104.9
					c-13.8,0-25-9.6-25-21.5c0-11.8,11.2-21.5,25-21.5c13.8,0,25,9.6,25,21.5C1825.9,95.3,1814.7,104.9,1800.9,104.9"/>
			</g>
		</g>
		<g id="XMLID_1380_">
			<g id="XMLID_1381_">
				<path id="XMLID_34_" class="st0" d="M1800.9,188.2c-35.5,0-64.4,23.2-64.4,51.7c0,28.5,28.9,51.7,64.4,51.7s64.4-23.2,64.4-51.7
					C1865.3,211.4,1836.4,188.2,1800.9,188.2 M1800.9,261.8c-15.1,0-27.3-9.8-27.3-21.9c0-12.1,12.3-21.9,27.3-21.9
					c15.1,0,27.3,9.8,27.3,21.9C1828.2,252,1816,261.8,1800.9,261.8"/>
			</g>
		</g>
		<g id="XMLID_1378_">
			<g id="XMLID_1379_">
				<path id="XMLID_35_" class="st0" d="M207.9,8.2h-34.3v197.8h34.3v-51.1v-29.5h29.3c6,0,11.6-3.2,14.6-8.4l12.8-22.2h-56.7V8.2z"
					/>
			</g>
		</g>
		<g id="XMLID_1376_">
			<g id="XMLID_1377_">
				<path id="XMLID_36_" class="st0" d="M71.9,196.5H37.2v82.7H199c6,0,11.6-3.2,14.6-8.4l12.8-22.2H71.9V196.5z"/>
			</g>
		</g>
		<g id="XMLID_1374_">
			<g id="XMLID_1375_">
				<path id="XMLID_37_" class="st0" d="M491.8,22.5h-171v30.6h136.3c0,19.4-0.7,32.5-2.1,55.2h-173v30.6H386v40.5h-72.1v30.9h143.8
					v68.8h34.7v-99.7h-4.7h-67.3v-40.5h91.9c6,0,11.6-3.2,14.6-8.4l12.8-22.2h-51.4C490.7,70.6,491.8,47.3,491.8,22.5"/>
			</g>
		</g>
		<g id="XMLID_529_">
			<g id="XMLID_1373_">
				<path id="XMLID_38_" class="st0" d="M966.5,141.2c-25,2.2-50.2,3.3-75.6,3.3v-32.1h49.2V83.6h-49.2v-31h70.3V22H857.1v153.1
					c31.1,0,58.5-0.6,82-1.9c5.7-0.3,10.9-3.5,13.7-8.4L966.5,141.2z"/>
			</g>
		</g>
		<g id="XMLID_527_">
			<g id="XMLID_528_">
				<rect id="XMLID_39_" x="1043.6" y="8.2" class="st0" width="34.2" height="200.8"/>
			</g>
		</g>
		<g id="XMLID_525_">
			<g id="XMLID_526_">
				<polygon id="XMLID_40_" class="st0" points="955.3,112.9 982.3,112.9 990.6,112.9 990.6,200.1 1024.7,200.1 1024.7,13.8 
					990.6,13.8 990.6,83.8 955.3,83.8 				"/>
			</g>
		</g>
		<g id="XMLID_516_">
			<g id="XMLID_523_">
				<g id="XMLID_524_">
					<path id="XMLID_42_" class="st0" d="M939.3,196.5h-0.4h-34.4v52.1v30.3h159.8c6,0,11.6-3.2,14.6-8.4l13-22.5H939.3V196.5z"/>
				</g>
			</g>
			<g id="XMLID_521_">
				<g id="XMLID_522_">
					<path id="XMLID_43_" class="st0" d="M1205.1,120.5c-18.4,14.5-41,23.7-67.9,27.7l22.9,28.1c43-12.9,74.2-33.2,93.4-60.9
						c8.7,12.7,22.2,24.8,40.5,36.3c18.3,11.5,36.7,19.6,55.1,24.4l19.8-28.4c-27.4-4.5-50.1-13.7-68-27.8
						c-18-14.1-27.9-31.4-29.7-49h53.6c6,0,11.6-3.2,14.6-8.4l12.2-21.2h-80.5V8.2h-34.7v33.1h-80.8v29.6h80.2
						C1233.8,88.5,1223.5,106,1205.1,120.5"/>
				</g>
			</g>
			<g id="XMLID_519_">
				<g id="XMLID_520_">
					<path id="XMLID_44_" class="st0" d="M1130.4,250h235.9c6,0,11.6-3.2,14.6-8.4l12.6-21.9h-263.1V250z"/>
				</g>
			</g>
			<g id="XMLID_517_">
				<g id="XMLID_518_">
					<path id="XMLID_45_" class="st0" d="M1494.8,196.6H1460v82h165.9c6,0,11.6-3.2,14.6-8.4l12.8-22.2h-158.6V196.6z"/>
				</g>
			</g>
		</g>
		<g id="XMLID_514_">
			<g id="XMLID_515_">
				<rect id="XMLID_41_" x="1600" y="8.2" class="st0" width="33.9" height="200.2"/>
			</g>
		</g>
		<g id="XMLID_511_">
			<g id="XMLID_512_">
				<g id="XMLID_513_">
					<path id="XMLID_47_" class="st0" d="M1990.9,196.6v82.6h170.6c6,0,11.6-3.2,14.6-8.4l12.8-22.2h-163.6v-52H1990.9z"/>
				</g>
			</g>
		</g>
		<g id="XMLID_509_">
			<g id="XMLID_510_">
				<polygon id="XMLID_46_" class="st0" points="2090.9,172.6 2090.9,185.2 2090.9,200.7 2142.3,200.7 2142.3,220.9 2177.1,220.9 
					2177.1,36 2177.1,8.2 2142.3,8.2 2142.3,96.1 2142.3,172.6 2098.2,172.6 				"/>
			</g>
		</g>
		<g id="XMLID_507_">
			<g id="XMLID_508_">
				<path id="XMLID_48_" class="st0" d="M742,130.3l33.5,2.3c2.7-25.5,4-62.7,4-111.4H604.2v30.6h141.1l-0.3,17.6l-140.8,5.2v28.9
					l140-7.4C743.4,112.5,742.7,124,742,130.3"/>
			</g>
		</g>
		<g id="XMLID_505_">
			<g id="XMLID_506_">
				<path id="XMLID_49_" class="st0" d="M638.9,196.6h-34.7v82.5h166.9c6,0,11.6-3.2,14.6-8.4l12.8-22.2H638.9V196.6z"/>
			</g>
		</g>
		<g id="XMLID_503_">
			<g id="XMLID_504_">
				<path id="XMLID_50_" class="st0" d="M692.6,110h-35v34.5h-89.5v30.6h218.1c6,0,11.6-3.2,14.6-8.4l12.8-22.2H692.6V110z"/>
			</g>
		</g>
		<g id="XMLID_501_">
			<g id="XMLID_502_">
				<path id="XMLID_51_" class="st0" d="M1677.6,174.8h231.2c6,0,11.6-3.2,14.6-8.4l11.9-20.6h-257.7V174.8z"/>
			</g>
		</g>
		<g id="XMLID_499_">
			<g id="XMLID_500_">
				<path id="XMLID_52_" class="st0" d="M2034.8,207.6h33.6v-49.4c10.1-0.4,20.1-1,30.2-1.6c5.7-0.3,10.8-3.5,13.6-8.4l13.6-23.5
					c-48.4,3.4-103.9,5.2-166.3,5.3v31.5c20,0,45.1-0.6,75.4-1.9V207.6z"/>
			</g>
		</g>
		<g id="XMLID_497_">
			<g id="XMLID_498_">
				<path id="XMLID_53_" class="st0" d="M59.1,8.2v24.1H0v29.2h131.3c6,0,11.6-3.2,14.6-8.4l12-20.7H93.8V8.2H59.1z"/>
			</g>
		</g>
		<g id="XMLID_495_">
			<g id="XMLID_496_">
				<path id="XMLID_54_" class="st0" d="M1495,120.8c14.5,22.1,34.3,39.7,59.4,52.7l21.9-27.7c-18.8-6.5-34.4-16.7-46.6-30.5
					c-12.2-13.9-18.3-29.2-18.3-46.1V51.4h37.2c6,0,11.6-3.2,14.6-8.4l12.5-21.7H1422v30.2h54.7v18.9c0,17.1-6.5,29.8-19.3,46.5
					c-12.8,16.7-28.4,25.5-47,32.9l24.5,25.5C1445.7,169.8,1484.5,142.9,1495,120.8"/>
			</g>
		</g>
	</g>
</g>
</svg>
