<svg width="210" height="25" viewBox="0 0 210 25" fill="none" xmlns="http://www.w3.org/2000/svg">
<g clip-path="url(#clip0_1_477)">
<path d="M32.5925 11.1638V11.102C34.9195 10.5214 36.409 8.99387 36.409 6.11961C36.409 2.01283 32.8209 0.751774 28.8426 0.751774H21.1477V9.51733H16.4176V13.0959H21.1477V22.285H28.7427C33.6584 22.285 37.2798 20.7003 37.2798 16.3318C37.2798 13.2291 35.1146 11.5493 32.5925 11.1591M26.2919 4.69675H28.2573C30.2654 4.69675 31.2981 5.41056 31.2981 7.02376C31.2981 8.63697 30.3273 9.47926 28.1335 9.47926H26.2919V4.70151V4.69675ZM28.4904 18.34H26.2919V13.134H28.6808C30.9459 13.134 32.0119 13.9715 32.0119 15.7846C32.0119 17.5976 30.7128 18.3352 28.4857 18.3352M41.0915 22.2802H46.3642V0.751774H41.0915V22.2897V22.2802ZM17.0838 2.3507L13.2673 0.0427246L5.23935 9.7743V0.751774H0V22.2897H5.23935V12.3964L11.9967 22.2897H18.1069L10.1218 10.6785L17.0838 2.3507ZM55.9435 18.0545L65.2515 4.05432V0.751774H50.0236V4.99179H58.9129L49.6667 18.9253L52.1841 22.2897H65.5085V18.0545H55.9435Z" fill="#D23345"/>
<path d="M73.5698 19.1158C73.5698 18.44 73.7126 17.8309 73.9886 17.2837C74.2646 16.7364 74.6263 16.2558 75.0879 15.8513C75.5447 15.4516 76.0634 15.1232 76.6583 14.8662C77.2483 14.614 77.8622 14.438 78.5046 14.3333V12.3584H70.4576V10.3074H89.1499V12.3584H81.0791V14.3333C81.7215 14.4189 82.3449 14.576 82.9493 14.7996C83.5584 15.028 84.1056 15.3373 84.5958 15.7228C85.0669 16.113 85.4524 16.5936 85.7474 17.1647C86.0424 17.7357 86.2042 18.402 86.2423 19.1634C86.2423 19.9914 86.0615 20.7052 85.6998 21.3143C85.3382 21.9234 84.8623 22.4278 84.2722 22.8323C83.6678 23.2368 82.9826 23.5414 82.226 23.7412C81.4693 23.9411 80.6936 24.0458 79.8989 24.0458C79.1042 24.0458 78.3857 23.9506 77.6385 23.765C76.8867 23.5794 76.2157 23.2844 75.6256 22.8799C75.0355 22.4754 74.5501 21.9615 74.1742 21.3381C73.7935 20.7147 73.5936 19.9723 73.5794 19.111M72.2136 7.49974C72.6181 7.2618 73.0797 6.962 73.6032 6.59082C74.1266 6.21964 74.6501 5.81515 75.1735 5.37735C75.697 4.95858 76.1871 4.51602 76.6392 4.04967C77.0961 3.58807 77.4482 3.14551 77.7004 2.72199H72.3659V0.751877H87.3654V2.72675H82.0784L87.4653 7.68533L85.8235 9.35564L79.8561 3.94498C79.1138 4.83962 78.3619 5.62005 77.6052 6.29578C76.8438 6.97152 76.1633 7.53305 75.5542 7.98989C74.9308 8.44197 74.4264 8.78935 74.0362 9.02253C73.6507 9.26046 73.4461 9.38895 73.4318 9.40323L72.2184 7.5045L72.2136 7.49974ZM83.7487 19.1586C83.7487 18.6542 83.6345 18.2211 83.4204 17.8547C83.2015 17.493 82.916 17.1932 82.5638 16.9553C82.1926 16.7364 81.7739 16.5746 81.3123 16.4652C80.8459 16.3557 80.3796 16.2986 79.9085 16.2986C79.4707 16.2986 79.0233 16.351 78.5713 16.4509C78.1144 16.5556 77.7004 16.7126 77.3292 16.9315C76.9581 17.1695 76.6535 17.4645 76.4203 17.8309C76.1824 18.1926 76.0682 18.6351 76.0682 19.1586C76.0682 19.6487 76.1824 20.0723 76.4108 20.4387C76.6392 20.8004 76.9343 21.1002 77.3054 21.3333C77.6623 21.5713 78.0668 21.7426 78.5332 21.852C78.9948 21.9615 79.4564 22.0138 79.9085 22.0138C80.3605 22.0138 80.7936 21.9615 81.2504 21.8615C81.7025 21.7616 82.1165 21.5998 82.4924 21.3809C82.8589 21.1477 83.1634 20.8479 83.4014 20.4815C83.6393 20.1199 83.7583 19.6773 83.7583 19.1538" fill="#58595B"/>
<path d="M101.237 17.9023H109.355V19.9248H90.6679V17.9023H98.7101V12.2109H101.242V17.9023H101.237ZM91.6006 10.669C93.0187 9.58882 94.1894 8.48955 95.1173 7.3665C96.0453 6.24344 96.7781 5.22983 97.3158 4.31616C97.9583 3.25496 98.4532 2.22708 98.8101 1.22775H101.208L108.446 10.8689L106.6 12.3584C105.434 10.8546 104.463 9.58406 103.678 8.53714C102.893 7.49022 102.255 6.63365 101.77 5.95792C101.199 5.16797 100.733 4.52554 100.376 4.03539C99.6714 5.30121 98.9005 6.43855 98.0772 7.45215C97.2492 8.46576 96.4831 9.33185 95.774 10.0552C94.946 10.9022 94.1227 11.6493 93.2995 12.306L91.6054 10.6643L91.6006 10.669Z" fill="#58595B"/>
<path d="M112.068 16.1701C112.744 14.9424 113.357 13.6432 113.914 12.2775C114.147 11.7017 114.385 11.0831 114.623 10.4168C114.861 9.75061 115.08 9.05584 115.28 8.32776C115.466 7.61871 115.632 6.89538 115.775 6.15302C115.918 5.41066 116.013 4.66354 116.065 3.90215H108.551V1.80831H118.692C118.659 3.22641 118.487 4.75872 118.188 6.40999C117.916 7.82809 117.479 9.46509 116.869 11.3162C116.26 13.1721 115.38 15.128 114.214 17.1837L112.063 16.1749L112.068 16.1701ZM122.637 0.314075H125.169V21.9377H122.637V0.314075Z" fill="#58595B"/>
<path d="M143.48 0.342628H146.007V12.6058H143.48V7.16663H139.454C139.388 7.90899 139.197 8.58473 138.888 9.18908C138.574 9.79344 138.169 10.3074 137.66 10.7309C137.156 11.1687 136.566 11.5113 135.89 11.754C135.214 12.0015 134.481 12.1205 133.687 12.1205C132.892 12.1205 132.15 11.992 131.45 11.7445C130.751 11.4923 130.141 11.1211 129.618 10.631C129.08 10.1599 128.652 9.5793 128.338 8.88453C128.024 8.19451 127.872 7.41408 127.872 6.52896C127.872 5.72474 128.019 4.98238 128.314 4.30664C128.609 3.6309 129.018 3.0551 129.542 2.56019C130.051 2.07004 130.655 1.6941 131.364 1.42286C132.074 1.15161 132.844 1.01837 133.691 1.01837C135.038 1.01837 136.228 1.37527 137.246 2.09384C138.269 2.8124 138.945 3.80222 139.283 5.06803H143.485V0.342628H143.48ZM130.375 6.59082C130.375 7.06194 130.451 7.51402 130.603 7.9423C130.755 8.37534 130.974 8.75128 131.26 9.06536C131.526 9.38895 131.869 9.64116 132.283 9.83627C132.697 10.0314 133.163 10.1266 133.687 10.1266C134.177 10.1266 134.624 10.0314 135.029 9.84579C135.433 9.6602 135.781 9.40799 136.066 9.08915C136.352 8.78459 136.58 8.41817 136.737 7.98989C136.899 7.5616 136.98 7.09049 136.98 6.58607C136.98 5.59149 136.694 4.76348 136.118 4.10677C135.547 3.45007 134.734 3.10268 133.691 3.06937C132.683 3.06937 131.874 3.39297 131.279 4.04491C130.679 4.6921 130.379 5.53915 130.379 6.58607M146.007 14.0763V23.2035H132.982V14.0763H135.333V16.6793H143.628V14.0763H146.007ZM143.632 18.7018H135.338V21.1811H143.632V18.7018Z" fill="#58595B"/>
<path d="M152.726 19.1158C152.726 18.44 152.864 17.8309 153.14 17.2837C153.421 16.7364 153.788 16.2558 154.244 15.8513C154.696 15.4516 155.225 15.1232 155.81 14.8662C156.4 14.614 157.019 14.438 157.656 14.3333V12.3584H149.614V10.3074H168.306V12.3584H160.236V14.3333C160.878 14.4189 161.501 14.576 162.111 14.7996C162.72 15.028 163.267 15.3373 163.752 15.7228C164.223 16.113 164.609 16.5936 164.904 17.1647C165.199 17.7357 165.361 18.402 165.399 19.1634C165.399 19.9914 165.213 20.7052 164.856 21.3143C164.495 21.9234 164.014 22.4278 163.424 22.8323C162.82 23.2368 162.134 23.5414 161.378 23.7412C160.616 23.9411 159.841 24.0458 159.051 24.0458C158.261 24.0458 157.537 23.9506 156.786 23.765C156.038 23.5794 155.367 23.2844 154.777 22.8799C154.187 22.4754 153.707 21.9615 153.321 21.3381C152.945 20.7147 152.745 19.9723 152.726 19.111M151.361 7.49974C151.765 7.2618 152.231 6.962 152.75 6.59082C153.274 6.21964 153.797 5.81515 154.316 5.37735C154.844 4.95858 155.329 4.51602 155.786 4.04967C156.238 3.58807 156.6 3.14551 156.847 2.72199H151.513V0.751877H166.512V2.72675H161.225L166.612 7.68533L164.966 9.35564L158.998 3.94498C158.256 4.83962 157.509 5.62005 156.747 6.29578C155.991 6.97152 155.306 7.53305 154.696 7.98989C154.073 8.44197 153.569 8.78935 153.178 9.02253C152.788 9.26046 152.593 9.38895 152.574 9.40323L151.361 7.5045V7.49974ZM162.891 19.1586C162.891 18.6542 162.782 18.2211 162.563 17.8547C162.344 17.493 162.063 17.1932 161.706 16.9553C161.335 16.7364 160.916 16.5746 160.455 16.4652C159.988 16.3557 159.522 16.2986 159.051 16.2986C158.613 16.2986 158.166 16.351 157.714 16.4509C157.257 16.5556 156.843 16.7126 156.476 16.9315C156.105 17.1695 155.8 17.4645 155.563 17.8309C155.329 18.1926 155.21 18.6351 155.21 19.1586C155.21 19.6487 155.325 20.0723 155.548 20.4387C155.777 20.8004 156.077 21.1002 156.448 21.3333C156.8 21.5713 157.209 21.7426 157.675 21.852C158.137 21.9615 158.599 22.0138 159.051 22.0138C159.503 22.0138 159.936 21.9615 160.393 21.8615C160.849 21.7616 161.264 21.5998 161.63 21.3809C162.001 21.1477 162.306 20.8479 162.539 20.4815C162.777 20.1199 162.891 19.6773 162.891 19.1538" fill="#58595B"/>
<path d="M175.535 12.1347C174.74 12.1347 173.993 12.0062 173.298 11.754C172.599 11.5018 171.985 11.1306 171.466 10.6405C170.928 10.1694 170.5 9.58882 170.186 8.89404C169.877 8.20403 169.72 7.41884 169.72 6.54324C169.72 5.73426 169.863 4.9919 170.148 4.30664C170.434 3.62614 170.838 3.04082 171.362 2.54591C171.885 2.06052 172.504 1.67983 173.208 1.40858C173.917 1.14209 174.693 1.00409 175.535 1.00409C176.325 1.00409 177.072 1.13733 177.771 1.3943C178.471 1.65603 179.09 2.02245 179.627 2.49357C180.151 2.98372 180.565 3.5738 180.865 4.26381C181.169 4.95383 181.322 5.73426 181.322 6.59082C181.322 7.39981 181.179 8.14217 180.888 8.8179C180.598 9.49364 180.203 10.0742 179.699 10.5644C179.175 11.0688 178.561 11.4638 177.852 11.7302C177.148 11.9967 176.368 12.1347 175.525 12.1347M172.213 6.57179C172.213 7.0429 172.289 7.49498 172.437 7.92327C172.589 8.35631 172.808 8.72749 173.094 9.05108C173.36 9.36992 173.703 9.62689 174.117 9.82199C174.531 10.0171 174.997 10.1123 175.521 10.1123C176.006 10.1123 176.458 10.0171 176.863 9.83151C177.267 9.64592 177.61 9.39371 177.9 9.07487C178.19 8.77032 178.409 8.4039 178.571 7.97561C178.728 7.54257 178.809 7.07621 178.809 6.57179C178.809 5.57722 178.523 4.75396 177.948 4.10677C177.377 3.45959 176.563 3.10744 175.521 3.05986C174.507 3.05986 173.703 3.38345 173.103 4.03063C172.504 4.67782 172.209 5.52487 172.209 6.57179M187.027 18.8636C187.027 19.7059 186.851 20.4482 186.494 21.0906C186.142 21.7283 185.666 22.266 185.076 22.7086C184.472 23.1274 183.787 23.451 183.03 23.6699C182.268 23.8888 181.483 24.003 180.674 24.003C179.913 24.003 179.156 23.903 178.4 23.6984C177.643 23.4985 176.958 23.1845 176.353 22.7657C175.744 22.3279 175.254 21.7902 174.888 21.1477C174.517 20.5053 174.331 19.7392 174.331 18.8493C174.331 17.9594 174.512 17.2456 174.869 16.6127C175.23 15.9798 175.716 15.4516 176.325 15.0328C176.915 14.6093 177.591 14.2904 178.347 14.081C179.109 13.8717 179.889 13.7575 180.703 13.7384C181.46 13.7384 182.211 13.8384 182.963 14.043C183.71 14.2476 184.391 14.5569 185 14.9804C185.585 15.3992 186.071 15.9369 186.451 16.5841C186.832 17.2313 187.022 17.9927 187.022 18.8731M180.674 22.0329C181.164 22.0329 181.631 21.971 182.078 21.8425C182.525 21.7188 182.925 21.5284 183.277 21.2715C183.629 21.005 183.91 20.6719 184.124 20.2721C184.334 19.8772 184.457 19.4108 184.491 18.8683C184.457 18.3449 184.334 17.888 184.124 17.5026C183.915 17.1123 183.639 16.784 183.301 16.5128C182.949 16.2605 182.545 16.0654 182.088 15.9322C181.631 15.7989 181.15 15.7228 180.646 15.7038C180.189 15.7038 179.732 15.7656 179.28 15.8941C178.828 16.0226 178.423 16.2177 178.067 16.489C177.695 16.7554 177.4 17.0886 177.186 17.4835C176.967 17.8785 176.858 18.3401 176.858 18.8636C176.858 19.387 176.963 19.8439 177.172 20.2388C177.381 20.6338 177.667 20.9669 178.019 21.2382C178.371 21.4904 178.776 21.6855 179.232 21.8235C179.689 21.9567 180.17 22.0233 180.674 22.0233M186.946 5.88653H190.306V7.98989H186.946V12.9199H184.467V0.323593H186.946V5.88653Z" fill="#58595B"/>
<path d="M204.263 8.54666C204.263 9.20336 204.159 9.80772 203.944 10.355C203.735 10.907 203.445 11.3876 203.074 11.8064C202.683 12.2299 202.231 12.5773 201.708 12.8581C201.189 13.1388 200.623 13.3339 200.014 13.4529V16.4604H206.233V18.5828H191.667V16.4604H197.482V13.5005C196.216 13.3149 195.174 12.8105 194.346 11.9825C193.518 11.1544 193.09 10.0028 193.057 8.51811C193.057 7.70912 193.199 7.00007 193.485 6.39096C193.77 5.7866 194.184 5.2108 194.727 4.6683H191.843V2.7315H197.354V0H199.909V2.7315H205.42V4.70637H202.612C202.898 4.85865 203.145 5.09183 203.354 5.41542C203.569 5.73426 203.74 6.07212 203.873 6.42427C204.006 6.79545 204.106 7.17139 204.163 7.55209C204.225 7.92802 204.254 8.26113 204.254 8.55142M195.474 8.55142C195.526 9.44605 195.836 10.1837 196.402 10.7642C196.968 11.3495 197.72 11.6398 198.662 11.6398C199.557 11.6398 200.309 11.3591 200.913 10.8023C201.522 10.2455 201.822 9.48888 201.822 8.52762C201.822 7.56636 201.546 6.824 200.989 6.20061C200.433 5.57722 199.657 5.26314 198.662 5.26314C197.668 5.26314 196.902 5.56294 196.364 6.16254C195.826 6.76214 195.526 7.5616 195.474 8.55618M209.817 21.9139H207.285V0.299799H209.817V21.9139Z" fill="#58595B"/>
</g>
<defs>
<clipPath id="clip0_1_477">
<rect width="210" height="24.0458" fill="white"/>
</clipPath>
</defs>
</svg>
